<?xml version="1.0" encoding="UTF-8"?>
<svg width="1013px" height="185px" viewBox="0 0 1013 185" version="1.1" xmlns="http://www.w3.org/2000/svg"
    xmlns:xlink="http://www.w3.org/1999/xlink">
    <title>Artboard</title>
    <g id="Artboard" stroke="none" stroke-width="1" fill="none" fill-rule="evenodd">
        <path
            d="M126.461187,163.009641 L82.8926197,163.009641 L82.8926197,100.874086 L54.6819315,100.874086 L54.6819315,163.009641 L10.049119,163.009641 L10.049119,2.68517287 L54.6819315,2.68517287 L54.6819315,62.4957613 L82.8926197,62.4957613 L82.8926197,2.68517287 L126.461187,2.68517287 L126.461187,163.009641 Z M326.260971,163.730053 C370.893783,163.730053 407.32372,126.596077 407.32372,81.4229555 C407.32372,35.5294215 370.893783,0 326.260971,0 C281.087849,0 258.231134,32.8606217 252.697058,46.237367 C252.697058,26.4260306 232.869348,2.66879987 209.848903,2.66879987 L135.400848,2.66879987 L135.400848,163.009641 L204.675033,163.009641 C232.885721,163.009641 252.697058,138.908577 252.697058,117.836519 C258.951546,130.869432 281.087849,163.730053 326.260971,163.730053 Z M199.140957,98.565492 C205.559176,98.565492 210.749418,104.81998 210.749418,111.95861 C210.749418,119.457447 205.575549,125.711935 199.140957,125.711935 L177.004654,125.711935 L177.004654,98.565492 L199.140957,98.565492 Z M199.140957,38.3946975 C205.559176,38.3946975 210.749418,44.6491855 210.749418,51.7878158 C210.749418,58.9264461 205.575549,65.1809342 199.140957,65.1809342 L177.004654,65.1809342 L177.004654,38.3946975 L199.140957,38.3946975 Z M228.415891,81.4229555 C233.589761,81.0627493 241.989112,75.1684674 245.198221,71.5991523 C243.953873,75.8888797 243.953873,89.4621011 245.198221,93.7354555 C241.628906,88.5615858 233.589761,82.3070977 228.415891,81.4229555 Z M285.55768,81.4229555 C285.55768,58.8445811 303.911818,40.5723072 326.522939,40.7196642 C337.386055,40.7640522 347.778607,45.1585572 355.378089,52.9211048 C362.97757,60.6836523 367.150479,71.1671458 366.964262,82.0287566 C366.636802,104.410655 348.544631,122.30635 326.260971,122.30635 C303.764461,122.30635 285.55768,104.099568 285.55768,81.4229555 Z M326.260971,113.563165 C343.58361,113.563165 358.221077,99.2859043 358.221077,81.4229555 C358.221077,63.5600066 343.58361,49.4628491 326.260971,49.4628491 C308.398022,49.4628491 294.120761,63.5763797 294.120761,81.4229555 C294.120761,99.2695312 308.398022,113.563165 326.260971,113.563165 L326.260971,113.563165 Z"
            id="Shape" fill="#fff"></path>
        <path
            d="M640.196975,59.4340093 C639.296459,20.5808677 611.871676,0.0163730053 578.159658,0.0163730053 C559.641789,0.0163730053 543.023188,6.22174202 531.660322,18.2559009 C520.297457,6.20536902 503.678856,0 485.17736,0 C451.448969,0 424.007812,20.5972407 423.140043,59.4995013 C423.125915,59.5860654 423.12043,59.6738199 423.122767,59.7614694 L423.122767,148.339428 C423.122767,156.477733 429.72107,163.075133 437.859375,163.075133 L451.77643,163.075133 C453.132814,163.075133 454.23238,161.975566 454.23238,160.619182 L454.23238,59.7614694 L454.248753,59.7614694 C454.838182,40.6050532 468.460522,30.4537899 485.17736,30.4537899 C501.894199,30.4537899 515.516539,40.6050532 516.105967,59.7614694 L516.12234,59.7614694 L516.12234,148.339428 C516.12234,156.477733 522.71974,163.075133 530.858045,163.075133 L544.7751,163.075133 C546.131484,163.075133 547.231051,161.975566 547.231051,160.619182 L547.231051,59.7614694 L547.247424,59.7614694 C547.836852,40.6050532 561.459192,30.4537899 578.176031,30.4537899 C594.892869,30.4537899 608.515209,40.6050532 609.104638,59.7614694 L609.121011,59.7614694 L609.121011,148.339428 C609.121011,156.477733 615.71841,163.075133 623.856715,163.075133 L637.77377,163.075133 C638.425129,163.075133 639.049809,162.816382 639.510389,162.355802 C639.97097,161.895222 640.229721,161.270541 640.229721,160.619182 L640.229721,59.7614694 C640.229721,59.6516059 640.216798,59.5420876 640.196975,59.4340093 L640.196975,59.4340093 Z"
            id="Path" fill="#fff" fill-rule="nonzero"></path>
        <path
            d="M953.576297,2.61967761 L929.966423,2.61967761 C923.433397,2.61721499 917.326892,5.86378882 913.675283,11.2810007 L887.576712,49.9867852 C885.982667,52.3588097 883.312335,53.7815852 880.454455,53.7815852 C877.596574,53.7815852 874.926243,52.3588097 873.332197,49.9867852 L847.233627,11.2810007 C843.582017,5.86378882 837.475513,2.61721499 830.942487,2.61967761 L807.332613,2.61967761 C806.652561,2.61967761 806.027545,2.99325093 805.708411,3.59377179 C805.389277,4.19429266 805.428341,4.92204808 805.809924,5.48495678 L852.42387,74.5954122 C855.780359,79.578808 855.780359,86.0996328 852.42387,91.0830286 L805.809924,160.193484 C805.429569,160.756617 805.391154,161.48372 805.710052,162.083797 C806.02895,162.683874 806.653063,163.058763 807.332613,163.058763 L830.942487,163.058763 C837.475513,163.061226 843.582017,159.814652 847.233627,154.39744 L873.332197,115.691656 C874.926243,113.319631 877.596574,111.896856 880.454455,111.896856 C883.312335,111.896856 885.982667,113.319631 887.576712,115.691656 L913.675283,154.39744 C917.326892,159.814652 923.433397,163.061226 929.966423,163.058763 L953.576297,163.058763 C954.256348,163.058763 954.881365,162.68519 955.200499,162.084669 C955.519633,161.484148 955.480569,160.756393 955.098986,160.193484 L908.48504,91.0830286 C905.128551,86.0996328 905.128551,79.578808 908.48504,74.5954122 L955.098986,5.48495678 C955.480569,4.92204808 955.519633,4.19429266 955.200499,3.59377179 C954.881365,2.99325093 954.256348,2.61967761 953.576297,2.61967761 L953.576297,2.61967761 Z"
            id="Path" fill="#fff" fill-rule="nonzero"></path>
        <path
            d="M794.954621,2.61968085 L781.037566,2.61968085 C774.096322,2.61748952 768.094695,7.45971119 766.629322,14.2445146 C754.218584,4.83003657 738.729721,0 721.931017,0 C681.178607,0 648.137882,28.3580452 648.137882,81.8650266 C648.137882,135.372008 681.178607,163.730053 721.931017,163.730053 C738.61511,163.730053 754.005735,158.981882 766.367354,149.682015 C767.068701,157.263134 773.424081,163.065255 781.037566,163.075133 L794.954621,163.075133 C796.311005,163.075133 797.410572,161.975566 797.410572,160.619182 L797.410572,5.07563165 C797.410572,3.71924748 796.311005,2.61968085 794.954621,2.61968085 Z M721.931017,133.25989 C697.600731,133.25989 677.87126,115.462434 677.87126,81.8650266 C677.87126,48.2676197 697.600731,30.4701629 721.931017,30.4701629 C746.261303,30.4701629 765.990775,48.2676197 765.990775,81.8650266 C765.990775,115.462434 746.261303,133.25989 721.931017,133.25989 Z"
            id="Shape" fill="#fff" fill-rule="nonzero"></path>
        <polygon id="Path" fill="#fff" fill-rule="nonzero"
            points="975.008561 5.70599235 970.375 5.70599235 970.375 19.6557929 966.985788 19.6557929 966.985788 5.70599235 962.3686 5.70599235 962.3686 2.4641373 975.008561 2.4641373">
        </polygon>
        <polygon id="Path" fill="#fff" fill-rule="nonzero"
            points="994.950881 19.6557929 991.578042 19.6557929 991.578042 8.51396277 986.748005 16.4876164 986.355053 16.4876164 981.525017 8.53033577 981.525017 19.6476064 978.135805 19.6476064 978.135805 2.4559508 981.623255 2.4559508 986.551529 10.5769614 991.463431 2.4559508 994.950881 2.4559508 994.950881 19.6639794">
        </polygon>
    </g>
</svg>
